<?xml version="1.0" encoding="utf-8" standalone="no"?>
<!DOCTYPE svg PUBLIC "-//W3C//DTD SVG 1.1//EN"
  "http://www.w3.org/Graphics/SVG/1.1/DTD/svg11.dtd">
<svg xmlns:xlink="http://www.w3.org/1999/xlink" width="432pt" height="432pt" viewBox="0 0 432 432" xmlns="http://www.w3.org/2000/svg" version="1.1">
 <metadata>
  <rdf:RDF xmlns:dc="http://purl.org/dc/elements/1.1/" xmlns:cc="http://creativecommons.org/ns#" xmlns:rdf="http://www.w3.org/1999/02/22-rdf-syntax-ns#">
   <cc:Work>
    <dc:type rdf:resource="http://purl.org/dc/dcmitype/StillImage"/>
    <dc:date>2022-01-24T09:43:07.086559</dc:date>
    <dc:format>image/svg+xml</dc:format>
    <dc:creator>
     <cc:Agent>
      <dc:title>Matplotlib v3.5.1, https://matplotlib.org/</dc:title>
     </cc:Agent>
    </dc:creator>
   </cc:Work>
  </rdf:RDF>
 </metadata>
 <defs>
  <style type="text/css">*{stroke-linejoin: round; stroke-linecap: butt}</style>
 </defs>
 <g id="figure_1">
  <g id="patch_1">
   <path d="M 0 432 
L 432 432 
L 432 0 
L 0 0 
z
" style="fill: #ffffff"/>
  </g>
  <g id="axes_1">
   <g id="patch_2">
    <path d="M 56.63 381.4 
L 419.04 381.4 
L 419.04 47.184 
L 56.63 47.184 
z
" style="fill: #ffffff"/>
   </g>
   <g id="matplotlib.axis_1">
    <g id="xtick_1">
     <g id="line2d_1">
      <defs>
       <path id="m9bfe7dfb88" d="M 0 0 
L 0 3.5 
" style="stroke: #000000; stroke-width: 0.8"/>
      </defs>
      <g>
       <use xlink:href="#m9bfe7dfb88" x="88.078802" y="381.4" style="stroke: #000000; stroke-width: 0.8"/>
      </g>
     </g>
     <g id="text_1">
      <!-- 0.0 -->
      <g transform="translate(78.536927 397.518125)scale(0.12 -0.12)">
       <defs>
        <path id="DejaVuSans-30" d="M 2034 4250 
Q 1547 4250 1301 3770 
Q 1056 3291 1056 2328 
Q 1056 1369 1301 889 
Q 1547 409 2034 409 
Q 2525 409 2770 889 
Q 3016 1369 3016 2328 
Q 3016 3291 2770 3770 
Q 2525 4250 2034 4250 
z
M 2034 4750 
Q 2819 4750 3233 4129 
Q 3647 3509 3647 2328 
Q 3647 1150 3233 529 
Q 2819 -91 2034 -91 
Q 1250 -91 836 529 
Q 422 1150 422 2328 
Q 422 3509 836 4129 
Q 1250 4750 2034 4750 
z
" transform="scale(0.015625)"/>
        <path id="DejaVuSans-2e" d="M 684 794 
L 1344 794 
L 1344 0 
L 684 0 
L 684 794 
z
" transform="scale(0.015625)"/>
       </defs>
       <use xlink:href="#DejaVuSans-30"/>
       <use xlink:href="#DejaVuSans-2e" x="63.623047"/>
       <use xlink:href="#DejaVuSans-30" x="95.410156"/>
      </g>
     </g>
    </g>
    <g id="xtick_2">
     <g id="line2d_2">
      <g>
       <use xlink:href="#m9bfe7dfb88" x="147.981281" y="381.4" style="stroke: #000000; stroke-width: 0.8"/>
      </g>
     </g>
     <g id="text_2">
      <!-- 0.2 -->
      <g transform="translate(138.439406 397.518125)scale(0.12 -0.12)">
       <defs>
        <path id="DejaVuSans-32" d="M 1228 531 
L 3431 531 
L 3431 0 
L 469 0 
L 469 531 
Q 828 903 1448 1529 
Q 2069 2156 2228 2338 
Q 2531 2678 2651 2914 
Q 2772 3150 2772 3378 
Q 2772 3750 2511 3984 
Q 2250 4219 1831 4219 
Q 1534 4219 1204 4116 
Q 875 4013 500 3803 
L 500 4441 
Q 881 4594 1212 4672 
Q 1544 4750 1819 4750 
Q 2544 4750 2975 4387 
Q 3406 4025 3406 3419 
Q 3406 3131 3298 2873 
Q 3191 2616 2906 2266 
Q 2828 2175 2409 1742 
Q 1991 1309 1228 531 
z
" transform="scale(0.015625)"/>
       </defs>
       <use xlink:href="#DejaVuSans-30"/>
       <use xlink:href="#DejaVuSans-2e" x="63.623047"/>
       <use xlink:href="#DejaVuSans-32" x="95.410156"/>
      </g>
     </g>
    </g>
    <g id="xtick_3">
     <g id="line2d_3">
      <g>
       <use xlink:href="#m9bfe7dfb88" x="207.88376" y="381.4" style="stroke: #000000; stroke-width: 0.8"/>
      </g>
     </g>
     <g id="text_3">
      <!-- 0.4 -->
      <g transform="translate(198.341885 397.518125)scale(0.12 -0.12)">
       <defs>
        <path id="DejaVuSans-34" d="M 2419 4116 
L 825 1625 
L 2419 1625 
L 2419 4116 
z
M 2253 4666 
L 3047 4666 
L 3047 1625 
L 3713 1625 
L 3713 1100 
L 3047 1100 
L 3047 0 
L 2419 0 
L 2419 1100 
L 313 1100 
L 313 1709 
L 2253 4666 
z
" transform="scale(0.015625)"/>
       </defs>
       <use xlink:href="#DejaVuSans-30"/>
       <use xlink:href="#DejaVuSans-2e" x="63.623047"/>
       <use xlink:href="#DejaVuSans-34" x="95.410156"/>
      </g>
     </g>
    </g>
    <g id="xtick_4">
     <g id="line2d_4">
      <g>
       <use xlink:href="#m9bfe7dfb88" x="267.78624" y="381.4" style="stroke: #000000; stroke-width: 0.8"/>
      </g>
     </g>
     <g id="text_4">
      <!-- 0.6 -->
      <g transform="translate(258.244365 397.518125)scale(0.12 -0.12)">
       <defs>
        <path id="DejaVuSans-36" d="M 2113 2584 
Q 1688 2584 1439 2293 
Q 1191 2003 1191 1497 
Q 1191 994 1439 701 
Q 1688 409 2113 409 
Q 2538 409 2786 701 
Q 3034 994 3034 1497 
Q 3034 2003 2786 2293 
Q 2538 2584 2113 2584 
z
M 3366 4563 
L 3366 3988 
Q 3128 4100 2886 4159 
Q 2644 4219 2406 4219 
Q 1781 4219 1451 3797 
Q 1122 3375 1075 2522 
Q 1259 2794 1537 2939 
Q 1816 3084 2150 3084 
Q 2853 3084 3261 2657 
Q 3669 2231 3669 1497 
Q 3669 778 3244 343 
Q 2819 -91 2113 -91 
Q 1303 -91 875 529 
Q 447 1150 447 2328 
Q 447 3434 972 4092 
Q 1497 4750 2381 4750 
Q 2619 4750 2861 4703 
Q 3103 4656 3366 4563 
z
" transform="scale(0.015625)"/>
       </defs>
       <use xlink:href="#DejaVuSans-30"/>
       <use xlink:href="#DejaVuSans-2e" x="63.623047"/>
       <use xlink:href="#DejaVuSans-36" x="95.410156"/>
      </g>
     </g>
    </g>
    <g id="xtick_5">
     <g id="line2d_5">
      <g>
       <use xlink:href="#m9bfe7dfb88" x="327.688719" y="381.4" style="stroke: #000000; stroke-width: 0.8"/>
      </g>
     </g>
     <g id="text_5">
      <!-- 0.8 -->
      <g transform="translate(318.146844 397.518125)scale(0.12 -0.12)">
       <defs>
        <path id="DejaVuSans-38" d="M 2034 2216 
Q 1584 2216 1326 1975 
Q 1069 1734 1069 1313 
Q 1069 891 1326 650 
Q 1584 409 2034 409 
Q 2484 409 2743 651 
Q 3003 894 3003 1313 
Q 3003 1734 2745 1975 
Q 2488 2216 2034 2216 
z
M 1403 2484 
Q 997 2584 770 2862 
Q 544 3141 544 3541 
Q 544 4100 942 4425 
Q 1341 4750 2034 4750 
Q 2731 4750 3128 4425 
Q 3525 4100 3525 3541 
Q 3525 3141 3298 2862 
Q 3072 2584 2669 2484 
Q 3125 2378 3379 2068 
Q 3634 1759 3634 1313 
Q 3634 634 3220 271 
Q 2806 -91 2034 -91 
Q 1263 -91 848 271 
Q 434 634 434 1313 
Q 434 1759 690 2068 
Q 947 2378 1403 2484 
z
M 1172 3481 
Q 1172 3119 1398 2916 
Q 1625 2713 2034 2713 
Q 2441 2713 2670 2916 
Q 2900 3119 2900 3481 
Q 2900 3844 2670 4047 
Q 2441 4250 2034 4250 
Q 1625 4250 1398 4047 
Q 1172 3844 1172 3481 
z
" transform="scale(0.015625)"/>
       </defs>
       <use xlink:href="#DejaVuSans-30"/>
       <use xlink:href="#DejaVuSans-2e" x="63.623047"/>
       <use xlink:href="#DejaVuSans-38" x="95.410156"/>
      </g>
     </g>
    </g>
    <g id="xtick_6">
     <g id="line2d_6">
      <g>
       <use xlink:href="#m9bfe7dfb88" x="387.591198" y="381.4" style="stroke: #000000; stroke-width: 0.8"/>
      </g>
     </g>
     <g id="text_6">
      <!-- 1.0 -->
      <g transform="translate(378.049323 397.518125)scale(0.12 -0.12)">
       <defs>
        <path id="DejaVuSans-31" d="M 794 531 
L 1825 531 
L 1825 4091 
L 703 3866 
L 703 4441 
L 1819 4666 
L 2450 4666 
L 2450 531 
L 3481 531 
L 3481 0 
L 794 0 
L 794 531 
z
" transform="scale(0.015625)"/>
       </defs>
       <use xlink:href="#DejaVuSans-31"/>
       <use xlink:href="#DejaVuSans-2e" x="63.623047"/>
       <use xlink:href="#DejaVuSans-30" x="95.410156"/>
      </g>
     </g>
    </g>
    <g id="text_7">
     <!-- False Positive Rate (FPR) -->
     <g style="fill: #1f2e3c" transform="translate(151.984375 414.651562)scale(0.14 -0.14)">
      <defs>
       <path id="DejaVuSans-46" d="M 628 4666 
L 3309 4666 
L 3309 4134 
L 1259 4134 
L 1259 2759 
L 3109 2759 
L 3109 2228 
L 1259 2228 
L 1259 0 
L 628 0 
L 628 4666 
z
" transform="scale(0.015625)"/>
       <path id="DejaVuSans-61" d="M 2194 1759 
Q 1497 1759 1228 1600 
Q 959 1441 959 1056 
Q 959 750 1161 570 
Q 1363 391 1709 391 
Q 2188 391 2477 730 
Q 2766 1069 2766 1631 
L 2766 1759 
L 2194 1759 
z
M 3341 1997 
L 3341 0 
L 2766 0 
L 2766 531 
Q 2569 213 2275 61 
Q 1981 -91 1556 -91 
Q 1019 -91 701 211 
Q 384 513 384 1019 
Q 384 1609 779 1909 
Q 1175 2209 1959 2209 
L 2766 2209 
L 2766 2266 
Q 2766 2663 2505 2880 
Q 2244 3097 1772 3097 
Q 1472 3097 1187 3025 
Q 903 2953 641 2809 
L 641 3341 
Q 956 3463 1253 3523 
Q 1550 3584 1831 3584 
Q 2591 3584 2966 3190 
Q 3341 2797 3341 1997 
z
" transform="scale(0.015625)"/>
       <path id="DejaVuSans-6c" d="M 603 4863 
L 1178 4863 
L 1178 0 
L 603 0 
L 603 4863 
z
" transform="scale(0.015625)"/>
       <path id="DejaVuSans-73" d="M 2834 3397 
L 2834 2853 
Q 2591 2978 2328 3040 
Q 2066 3103 1784 3103 
Q 1356 3103 1142 2972 
Q 928 2841 928 2578 
Q 928 2378 1081 2264 
Q 1234 2150 1697 2047 
L 1894 2003 
Q 2506 1872 2764 1633 
Q 3022 1394 3022 966 
Q 3022 478 2636 193 
Q 2250 -91 1575 -91 
Q 1294 -91 989 -36 
Q 684 19 347 128 
L 347 722 
Q 666 556 975 473 
Q 1284 391 1588 391 
Q 1994 391 2212 530 
Q 2431 669 2431 922 
Q 2431 1156 2273 1281 
Q 2116 1406 1581 1522 
L 1381 1569 
Q 847 1681 609 1914 
Q 372 2147 372 2553 
Q 372 3047 722 3315 
Q 1072 3584 1716 3584 
Q 2034 3584 2315 3537 
Q 2597 3491 2834 3397 
z
" transform="scale(0.015625)"/>
       <path id="DejaVuSans-65" d="M 3597 1894 
L 3597 1613 
L 953 1613 
Q 991 1019 1311 708 
Q 1631 397 2203 397 
Q 2534 397 2845 478 
Q 3156 559 3463 722 
L 3463 178 
Q 3153 47 2828 -22 
Q 2503 -91 2169 -91 
Q 1331 -91 842 396 
Q 353 884 353 1716 
Q 353 2575 817 3079 
Q 1281 3584 2069 3584 
Q 2775 3584 3186 3129 
Q 3597 2675 3597 1894 
z
M 3022 2063 
Q 3016 2534 2758 2815 
Q 2500 3097 2075 3097 
Q 1594 3097 1305 2825 
Q 1016 2553 972 2059 
L 3022 2063 
z
" transform="scale(0.015625)"/>
       <path id="DejaVuSans-20" transform="scale(0.015625)"/>
       <path id="DejaVuSans-50" d="M 1259 4147 
L 1259 2394 
L 2053 2394 
Q 2494 2394 2734 2622 
Q 2975 2850 2975 3272 
Q 2975 3691 2734 3919 
Q 2494 4147 2053 4147 
L 1259 4147 
z
M 628 4666 
L 2053 4666 
Q 2838 4666 3239 4311 
Q 3641 3956 3641 3272 
Q 3641 2581 3239 2228 
Q 2838 1875 2053 1875 
L 1259 1875 
L 1259 0 
L 628 0 
L 628 4666 
z
" transform="scale(0.015625)"/>
       <path id="DejaVuSans-6f" d="M 1959 3097 
Q 1497 3097 1228 2736 
Q 959 2375 959 1747 
Q 959 1119 1226 758 
Q 1494 397 1959 397 
Q 2419 397 2687 759 
Q 2956 1122 2956 1747 
Q 2956 2369 2687 2733 
Q 2419 3097 1959 3097 
z
M 1959 3584 
Q 2709 3584 3137 3096 
Q 3566 2609 3566 1747 
Q 3566 888 3137 398 
Q 2709 -91 1959 -91 
Q 1206 -91 779 398 
Q 353 888 353 1747 
Q 353 2609 779 3096 
Q 1206 3584 1959 3584 
z
" transform="scale(0.015625)"/>
       <path id="DejaVuSans-69" d="M 603 3500 
L 1178 3500 
L 1178 0 
L 603 0 
L 603 3500 
z
M 603 4863 
L 1178 4863 
L 1178 4134 
L 603 4134 
L 603 4863 
z
" transform="scale(0.015625)"/>
       <path id="DejaVuSans-74" d="M 1172 4494 
L 1172 3500 
L 2356 3500 
L 2356 3053 
L 1172 3053 
L 1172 1153 
Q 1172 725 1289 603 
Q 1406 481 1766 481 
L 2356 481 
L 2356 0 
L 1766 0 
Q 1100 0 847 248 
Q 594 497 594 1153 
L 594 3053 
L 172 3053 
L 172 3500 
L 594 3500 
L 594 4494 
L 1172 4494 
z
" transform="scale(0.015625)"/>
       <path id="DejaVuSans-76" d="M 191 3500 
L 800 3500 
L 1894 563 
L 2988 3500 
L 3597 3500 
L 2284 0 
L 1503 0 
L 191 3500 
z
" transform="scale(0.015625)"/>
       <path id="DejaVuSans-52" d="M 2841 2188 
Q 3044 2119 3236 1894 
Q 3428 1669 3622 1275 
L 4263 0 
L 3584 0 
L 2988 1197 
Q 2756 1666 2539 1819 
Q 2322 1972 1947 1972 
L 1259 1972 
L 1259 0 
L 628 0 
L 628 4666 
L 2053 4666 
Q 2853 4666 3247 4331 
Q 3641 3997 3641 3322 
Q 3641 2881 3436 2590 
Q 3231 2300 2841 2188 
z
M 1259 4147 
L 1259 2491 
L 2053 2491 
Q 2509 2491 2742 2702 
Q 2975 2913 2975 3322 
Q 2975 3731 2742 3939 
Q 2509 4147 2053 4147 
L 1259 4147 
z
" transform="scale(0.015625)"/>
       <path id="DejaVuSans-28" d="M 1984 4856 
Q 1566 4138 1362 3434 
Q 1159 2731 1159 2009 
Q 1159 1288 1364 580 
Q 1569 -128 1984 -844 
L 1484 -844 
Q 1016 -109 783 600 
Q 550 1309 550 2009 
Q 550 2706 781 3412 
Q 1013 4119 1484 4856 
L 1984 4856 
z
" transform="scale(0.015625)"/>
       <path id="DejaVuSans-29" d="M 513 4856 
L 1013 4856 
Q 1481 4119 1714 3412 
Q 1947 2706 1947 2009 
Q 1947 1309 1714 600 
Q 1481 -109 1013 -844 
L 513 -844 
Q 928 -128 1133 580 
Q 1338 1288 1338 2009 
Q 1338 2731 1133 3434 
Q 928 4138 513 4856 
z
" transform="scale(0.015625)"/>
      </defs>
      <use xlink:href="#DejaVuSans-46"/>
      <use xlink:href="#DejaVuSans-61" x="48.394531"/>
      <use xlink:href="#DejaVuSans-6c" x="109.673828"/>
      <use xlink:href="#DejaVuSans-73" x="137.457031"/>
      <use xlink:href="#DejaVuSans-65" x="189.556641"/>
      <use xlink:href="#DejaVuSans-20" x="251.080078"/>
      <use xlink:href="#DejaVuSans-50" x="282.867188"/>
      <use xlink:href="#DejaVuSans-6f" x="339.544922"/>
      <use xlink:href="#DejaVuSans-73" x="400.726562"/>
      <use xlink:href="#DejaVuSans-69" x="452.826172"/>
      <use xlink:href="#DejaVuSans-74" x="480.609375"/>
      <use xlink:href="#DejaVuSans-69" x="519.818359"/>
      <use xlink:href="#DejaVuSans-76" x="547.601562"/>
      <use xlink:href="#DejaVuSans-65" x="606.78125"/>
      <use xlink:href="#DejaVuSans-20" x="668.304688"/>
      <use xlink:href="#DejaVuSans-52" x="700.091797"/>
      <use xlink:href="#DejaVuSans-61" x="767.324219"/>
      <use xlink:href="#DejaVuSans-74" x="828.603516"/>
      <use xlink:href="#DejaVuSans-65" x="867.8125"/>
      <use xlink:href="#DejaVuSans-20" x="929.335938"/>
      <use xlink:href="#DejaVuSans-28" x="961.123047"/>
      <use xlink:href="#DejaVuSans-46" x="1000.136719"/>
      <use xlink:href="#DejaVuSans-50" x="1057.65625"/>
      <use xlink:href="#DejaVuSans-52" x="1117.958984"/>
      <use xlink:href="#DejaVuSans-29" x="1187.441406"/>
     </g>
    </g>
   </g>
   <g id="matplotlib.axis_2">
    <g id="ytick_1">
     <g id="line2d_7">
      <defs>
       <path id="m2fa7e6d2f0" d="M 0 0 
L -3.5 0 
" style="stroke: #000000; stroke-width: 0.8"/>
      </defs>
      <g>
       <use xlink:href="#m2fa7e6d2f0" x="56.63" y="352.397785" style="stroke: #000000; stroke-width: 0.8"/>
      </g>
     </g>
     <g id="text_8">
      <!-- 0.0 -->
      <g transform="translate(30.54625 356.956848)scale(0.12 -0.12)">
       <use xlink:href="#DejaVuSans-30"/>
       <use xlink:href="#DejaVuSans-2e" x="63.623047"/>
       <use xlink:href="#DejaVuSans-30" x="95.410156"/>
      </g>
     </g>
    </g>
    <g id="ytick_2">
     <g id="line2d_8">
      <g>
       <use xlink:href="#m2fa7e6d2f0" x="56.63" y="297.155471" style="stroke: #000000; stroke-width: 0.8"/>
      </g>
     </g>
     <g id="text_9">
      <!-- 0.2 -->
      <g transform="translate(30.54625 301.714534)scale(0.12 -0.12)">
       <use xlink:href="#DejaVuSans-30"/>
       <use xlink:href="#DejaVuSans-2e" x="63.623047"/>
       <use xlink:href="#DejaVuSans-32" x="95.410156"/>
      </g>
     </g>
    </g>
    <g id="ytick_3">
     <g id="line2d_9">
      <g>
       <use xlink:href="#m2fa7e6d2f0" x="56.63" y="241.913157" style="stroke: #000000; stroke-width: 0.8"/>
      </g>
     </g>
     <g id="text_10">
      <!-- 0.4 -->
      <g transform="translate(30.54625 246.47222)scale(0.12 -0.12)">
       <use xlink:href="#DejaVuSans-30"/>
       <use xlink:href="#DejaVuSans-2e" x="63.623047"/>
       <use xlink:href="#DejaVuSans-34" x="95.410156"/>
      </g>
     </g>
    </g>
    <g id="ytick_4">
     <g id="line2d_10">
      <g>
       <use xlink:href="#m2fa7e6d2f0" x="56.63" y="186.670843" style="stroke: #000000; stroke-width: 0.8"/>
      </g>
     </g>
     <g id="text_11">
      <!-- 0.6 -->
      <g transform="translate(30.54625 191.229905)scale(0.12 -0.12)">
       <use xlink:href="#DejaVuSans-30"/>
       <use xlink:href="#DejaVuSans-2e" x="63.623047"/>
       <use xlink:href="#DejaVuSans-36" x="95.410156"/>
      </g>
     </g>
    </g>
    <g id="ytick_5">
     <g id="line2d_11">
      <g>
       <use xlink:href="#m2fa7e6d2f0" x="56.63" y="131.428529" style="stroke: #000000; stroke-width: 0.8"/>
      </g>
     </g>
     <g id="text_12">
      <!-- 0.8 -->
      <g transform="translate(30.54625 135.987591)scale(0.12 -0.12)">
       <use xlink:href="#DejaVuSans-30"/>
       <use xlink:href="#DejaVuSans-2e" x="63.623047"/>
       <use xlink:href="#DejaVuSans-38" x="95.410156"/>
      </g>
     </g>
    </g>
    <g id="ytick_6">
     <g id="line2d_12">
      <g>
       <use xlink:href="#m2fa7e6d2f0" x="56.63" y="76.186215" style="stroke: #000000; stroke-width: 0.8"/>
      </g>
     </g>
     <g id="text_13">
      <!-- 1.0 -->
      <g transform="translate(30.54625 80.745277)scale(0.12 -0.12)">
       <use xlink:href="#DejaVuSans-31"/>
       <use xlink:href="#DejaVuSans-2e" x="63.623047"/>
       <use xlink:href="#DejaVuSans-30" x="95.410156"/>
      </g>
     </g>
    </g>
    <g id="text_14">
     <!-- True Positive Rate (TPR) -->
     <g style="fill: #1f2e3c" transform="translate(23.634688 297.680594)rotate(-90)scale(0.14 -0.14)">
      <defs>
       <path id="DejaVuSans-54" d="M -19 4666 
L 3928 4666 
L 3928 4134 
L 2272 4134 
L 2272 0 
L 1638 0 
L 1638 4134 
L -19 4134 
L -19 4666 
z
" transform="scale(0.015625)"/>
       <path id="DejaVuSans-72" d="M 2631 2963 
Q 2534 3019 2420 3045 
Q 2306 3072 2169 3072 
Q 1681 3072 1420 2755 
Q 1159 2438 1159 1844 
L 1159 0 
L 581 0 
L 581 3500 
L 1159 3500 
L 1159 2956 
Q 1341 3275 1631 3429 
Q 1922 3584 2338 3584 
Q 2397 3584 2469 3576 
Q 2541 3569 2628 3553 
L 2631 2963 
z
" transform="scale(0.015625)"/>
       <path id="DejaVuSans-75" d="M 544 1381 
L 544 3500 
L 1119 3500 
L 1119 1403 
Q 1119 906 1312 657 
Q 1506 409 1894 409 
Q 2359 409 2629 706 
Q 2900 1003 2900 1516 
L 2900 3500 
L 3475 3500 
L 3475 0 
L 2900 0 
L 2900 538 
Q 2691 219 2414 64 
Q 2138 -91 1772 -91 
Q 1169 -91 856 284 
Q 544 659 544 1381 
z
M 1991 3584 
L 1991 3584 
z
" transform="scale(0.015625)"/>
      </defs>
      <use xlink:href="#DejaVuSans-54"/>
      <use xlink:href="#DejaVuSans-72" x="46.333984"/>
      <use xlink:href="#DejaVuSans-75" x="87.447266"/>
      <use xlink:href="#DejaVuSans-65" x="150.826172"/>
      <use xlink:href="#DejaVuSans-20" x="212.349609"/>
      <use xlink:href="#DejaVuSans-50" x="244.136719"/>
      <use xlink:href="#DejaVuSans-6f" x="300.814453"/>
      <use xlink:href="#DejaVuSans-73" x="361.996094"/>
      <use xlink:href="#DejaVuSans-69" x="414.095703"/>
      <use xlink:href="#DejaVuSans-74" x="441.878906"/>
      <use xlink:href="#DejaVuSans-69" x="481.087891"/>
      <use xlink:href="#DejaVuSans-76" x="508.871094"/>
      <use xlink:href="#DejaVuSans-65" x="568.050781"/>
      <use xlink:href="#DejaVuSans-20" x="629.574219"/>
      <use xlink:href="#DejaVuSans-52" x="661.361328"/>
      <use xlink:href="#DejaVuSans-61" x="728.59375"/>
      <use xlink:href="#DejaVuSans-74" x="789.873047"/>
      <use xlink:href="#DejaVuSans-65" x="829.082031"/>
      <use xlink:href="#DejaVuSans-20" x="890.605469"/>
      <use xlink:href="#DejaVuSans-28" x="922.392578"/>
      <use xlink:href="#DejaVuSans-54" x="961.40625"/>
      <use xlink:href="#DejaVuSans-50" x="1022.490234"/>
      <use xlink:href="#DejaVuSans-52" x="1082.792969"/>
      <use xlink:href="#DejaVuSans-29" x="1152.275391"/>
     </g>
    </g>
   </g>
   <g id="line2d_13">
    <path d="M 88.078802 352.397785 
L 88.078802 340.644101 
L 88.356642 340.644101 
L 88.356642 334.767259 
L 88.634483 334.767259 
L 88.634483 328.890417 
L 88.912324 328.890417 
L 88.912324 325.532222 
L 89.468006 325.532222 
L 89.468006 323.013576 
L 89.745847 323.013576 
L 89.745847 321.334478 
L 90.023687 321.334478 
L 90.023687 320.494929 
L 90.301528 320.494929 
L 90.301528 317.976282 
L 90.579369 317.976282 
L 90.579369 314.618087 
L 90.85721 314.618087 
L 90.85721 312.938989 
L 91.412891 312.938989 
L 91.412891 311.259892 
L 91.690732 311.259892 
L 91.690732 307.062147 
L 91.968573 307.062147 
L 91.968573 296.148012 
L 92.246414 296.148012 
L 92.246414 295.308464 
L 92.524255 295.308464 
L 92.524255 293.629366 
L 92.802095 293.629366 
L 92.802095 291.950268 
L 93.079936 291.950268 
L 93.079936 288.592073 
L 93.357777 288.592073 
L 93.357777 286.912975 
L 93.635618 286.912975 
L 93.635618 286.073426 
L 93.913459 286.073426 
L 93.913459 283.55478 
L 94.46914 283.55478 
L 94.46914 281.875682 
L 94.746981 281.875682 
L 94.746981 281.036133 
L 95.580504 281.036133 
L 95.580504 280.196584 
L 95.858344 280.196584 
L 95.858344 279.357036 
L 96.136185 279.357036 
L 96.136185 276.838389 
L 96.414026 276.838389 
L 96.414026 274.319742 
L 96.691867 274.319742 
L 96.691867 271.801096 
L 97.525389 271.801096 
L 97.525389 270.961547 
L 97.80323 270.961547 
L 97.80323 267.603352 
L 98.081071 267.603352 
L 98.081071 266.763803 
L 98.636753 266.763803 
L 98.636753 265.924254 
L 99.192434 265.924254 
L 99.192434 260.886961 
L 99.470275 260.886961 
L 99.470275 258.368314 
L 100.303797 258.368314 
L 100.303797 255.849668 
L 100.581638 255.849668 
L 100.581638 255.010119 
L 101.13732 255.010119 
L 101.13732 251.651924 
L 101.415161 251.651924 
L 101.415161 249.972826 
L 101.693002 249.972826 
L 101.693002 248.293728 
L 101.970842 248.293728 
L 101.970842 245.775082 
L 102.248683 245.775082 
L 102.248683 244.935533 
L 102.526524 244.935533 
L 102.526524 244.095984 
L 102.804365 244.095984 
L 102.804365 243.256435 
L 103.082206 243.256435 
L 103.082206 241.577337 
L 103.915728 241.577337 
L 103.915728 239.058691 
L 104.193569 239.058691 
L 104.193569 238.219142 
L 104.74925 238.219142 
L 104.74925 236.540044 
L 105.027091 236.540044 
L 105.027091 234.021398 
L 105.582773 234.021398 
L 105.582773 232.3423 
L 106.138455 232.3423 
L 106.138455 231.502751 
L 107.805499 231.502751 
L 107.805499 228.144556 
L 108.08334 228.144556 
L 108.08334 224.786361 
L 108.361181 224.786361 
L 108.361181 222.267714 
L 109.750385 222.267714 
L 109.750385 215.551323 
L 110.306067 215.551323 
L 110.306067 214.711774 
L 110.583908 214.711774 
L 110.583908 213.032677 
L 111.139589 213.032677 
L 111.139589 209.674481 
L 111.695271 209.674481 
L 111.695271 207.995384 
L 111.973112 207.995384 
L 111.973112 207.155835 
L 113.362316 207.155835 
L 113.362316 206.316286 
L 113.640156 206.316286 
L 113.640156 202.958091 
L 113.917997 202.958091 
L 113.917997 201.278993 
L 114.473679 201.278993 
L 114.473679 198.760346 
L 115.307201 198.760346 
L 115.307201 197.920798 
L 115.585042 197.920798 
L 115.585042 197.081249 
L 116.418565 197.081249 
L 116.418565 195.402151 
L 118.641291 195.402151 
L 118.641291 194.562602 
L 119.196973 194.562602 
L 119.196973 193.723053 
L 119.752654 193.723053 
L 119.752654 192.043956 
L 120.586177 192.043956 
L 120.586177 189.525309 
L 121.419699 189.525309 
L 121.419699 188.68576 
L 121.975381 188.68576 
L 121.975381 187.846211 
L 122.808903 187.846211 
L 122.808903 184.488016 
L 123.086744 184.488016 
L 123.086744 183.648467 
L 123.364585 183.648467 
L 123.364585 182.808918 
L 123.642426 182.808918 
L 123.642426 181.129821 
L 124.198107 181.129821 
L 124.198107 180.290272 
L 125.03163 180.290272 
L 125.03163 178.611174 
L 125.309471 178.611174 
L 125.309471 177.771625 
L 126.698675 177.771625 
L 126.698675 176.932076 
L 127.532197 176.932076 
L 127.532197 176.092528 
L 128.087879 176.092528 
L 128.087879 174.41343 
L 128.921401 174.41343 
L 128.921401 173.573881 
L 129.754924 173.573881 
L 129.754924 172.734332 
L 130.032764 172.734332 
L 130.032764 171.055234 
L 130.588446 171.055234 
L 130.588446 170.215686 
L 131.421969 170.215686 
L 131.421969 169.376137 
L 131.97765 169.376137 
L 131.97765 168.536588 
L 132.533332 168.536588 
L 132.533332 167.697039 
L 134.478217 167.697039 
L 134.478217 166.85749 
L 135.033899 166.85749 
L 135.033899 166.017941 
L 135.589581 166.017941 
L 135.589581 165.178393 
L 135.867422 165.178393 
L 135.867422 164.338844 
L 138.64583 164.338844 
L 138.64583 163.499295 
L 139.201511 163.499295 
L 139.201511 162.659746 
L 140.590715 162.659746 
L 140.590715 161.820197 
L 141.146397 161.820197 
L 141.146397 160.980648 
L 141.424238 160.980648 
L 141.424238 160.141099 
L 141.979919 160.141099 
L 141.979919 159.301551 
L 142.25776 159.301551 
L 142.25776 158.462002 
L 142.535601 158.462002 
L 142.535601 157.622453 
L 143.924805 157.622453 
L 143.924805 155.943355 
L 144.202646 155.943355 
L 144.202646 153.424709 
L 144.758328 153.424709 
L 144.758328 152.58516 
L 145.59185 152.58516 
L 145.59185 151.745611 
L 146.425372 151.745611 
L 146.425372 150.906062 
L 146.981054 150.906062 
L 146.981054 150.066513 
L 150.037303 150.066513 
L 150.037303 148.387416 
L 150.315144 148.387416 
L 150.315144 147.547867 
L 150.870825 147.547867 
L 150.870825 146.708318 
L 151.148666 146.708318 
L 151.148666 145.868769 
L 151.704348 145.868769 
L 151.704348 143.350123 
L 151.982189 143.350123 
L 151.982189 142.510574 
L 152.26003 142.510574 
L 152.26003 141.671025 
L 154.482756 141.671025 
L 154.482756 139.991927 
L 155.316278 139.991927 
L 155.316278 139.152378 
L 155.87196 139.152378 
L 155.87196 138.312829 
L 157.261164 138.312829 
L 157.261164 137.473281 
L 158.094687 137.473281 
L 158.094687 136.633732 
L 158.650368 136.633732 
L 158.650368 135.794183 
L 158.928209 135.794183 
L 158.928209 134.115085 
L 159.483891 134.115085 
L 159.483891 131.596439 
L 161.150936 131.596439 
L 161.150936 130.75689 
L 161.984458 130.75689 
L 161.984458 129.917341 
L 162.54014 129.917341 
L 162.54014 129.077792 
L 163.373662 129.077792 
L 163.373662 128.238243 
L 163.651503 128.238243 
L 163.651503 126.559146 
L 164.207184 126.559146 
L 164.207184 124.040499 
L 168.652637 124.040499 
L 168.652637 123.20095 
L 170.319682 123.20095 
L 170.319682 122.361401 
L 172.542409 122.361401 
L 172.542409 121.521853 
L 175.320817 121.521853 
L 175.320817 119.842755 
L 176.710021 119.842755 
L 176.710021 119.003206 
L 181.433315 119.003206 
L 181.433315 117.324108 
L 181.988997 117.324108 
L 181.988997 115.645011 
L 182.544678 115.645011 
L 182.544678 113.965913 
L 183.656041 113.965913 
L 183.656041 113.126364 
L 183.933882 113.126364 
L 183.933882 112.286815 
L 185.045245 112.286815 
L 185.045245 110.607718 
L 188.657176 110.607718 
L 188.657176 109.768169 
L 192.824788 109.768169 
L 192.824788 108.089071 
L 193.102629 108.089071 
L 193.102629 107.249522 
L 193.658311 107.249522 
L 193.658311 106.409973 
L 198.659445 106.409973 
L 198.659445 105.570424 
L 200.048649 105.570424 
L 200.048649 104.730876 
L 201.715694 104.730876 
L 201.715694 103.891327 
L 206.161147 103.891327 
L 206.161147 103.051778 
L 207.828192 103.051778 
L 207.828192 102.212229 
L 213.107168 102.212229 
L 213.107168 101.37268 
L 216.441257 101.37268 
L 216.441257 100.533131 
L 220.331029 100.533131 
L 220.331029 99.693583 
L 220.60887 99.693583 
L 220.60887 98.854034 
L 223.665119 98.854034 
L 223.665119 98.014485 
L 224.498641 98.014485 
L 224.498641 97.174936 
L 224.776482 97.174936 
L 224.776482 96.335387 
L 230.333298 96.335387 
L 230.333298 95.495838 
L 232.278184 95.495838 
L 232.278184 94.656289 
L 236.167955 94.656289 
L 236.167955 93.816741 
L 236.723637 93.816741 
L 236.723637 92.977192 
L 237.557159 92.977192 
L 237.557159 92.137643 
L 237.835 92.137643 
L 237.835 91.298094 
L 238.390682 91.298094 
L 238.390682 90.458545 
L 238.946363 90.458545 
L 238.946363 89.618996 
L 239.502045 89.618996 
L 239.502045 88.779448 
L 240.057727 88.779448 
L 240.057727 87.939899 
L 243.947498 87.939899 
L 243.947498 87.10035 
L 244.50318 87.10035 
L 244.50318 86.260801 
L 255.894653 86.260801 
L 255.894653 85.421252 
L 257.006016 85.421252 
L 257.006016 84.581703 
L 259.784424 84.581703 
L 259.784424 83.742154 
L 263.952036 83.742154 
L 263.952036 82.063057 
L 270.064534 82.063057 
L 270.064534 81.223508 
L 271.731579 81.223508 
L 271.731579 80.383959 
L 274.232147 80.383959 
L 274.232147 79.54441 
L 281.178167 79.54441 
L 281.178167 78.704861 
L 287.846346 78.704861 
L 287.846346 77.865313 
L 343.136668 77.865313 
L 343.136668 77.025764 
L 375.921884 77.025764 
L 375.921884 76.186215 
L 387.591198 76.186215 
L 387.591198 76.186215 
" clip-path="url(#p6931aa1539)" style="fill: none; stroke: #326d6c; stroke-width: 1.5; stroke-linecap: square"/>
   </g>
   <g id="line2d_14">
    <path d="M 73.103182 366.208364 
L 402.566818 62.375636 
" clip-path="url(#p6931aa1539)" style="fill: none; stroke-dasharray: 1.5,2.475; stroke-dashoffset: 0; stroke: #000000; stroke-width: 1.5"/>
   </g>
   <g id="line2d_15">
    <defs>
     <path id="ma5806c9e02" d="M 0 4 
C 1.060812 4 2.078319 3.578535 2.828427 2.828427 
C 3.578535 2.078319 4 1.060812 4 0 
C 4 -1.060812 3.578535 -2.078319 2.828427 -2.828427 
C 2.078319 -3.578535 1.060812 -4 0 -4 
C -1.060812 -4 -2.078319 -3.578535 -2.828427 -2.828427 
C -3.578535 -2.078319 -4 -1.060812 -4 0 
C -4 1.060812 -3.578535 2.078319 -2.828427 2.828427 
C -2.078319 3.578535 -1.060812 4 0 4 
z
" style="stroke: #418887"/>
    </defs>
    <g clip-path="url(#p6931aa1539)">
     <use xlink:href="#ma5806c9e02" x="147.814577" y="150.066513" style="fill: #418887; stroke: #418887"/>
    </g>
   </g>
   <g id="line2d_16">
    <g clip-path="url(#p6931aa1539)">
     <use xlink:href="#ma5806c9e02" x="207.828192" y="102.212229" style="fill: #418887; stroke: #418887"/>
    </g>
   </g>
   <g id="line2d_17">
    <g clip-path="url(#p6931aa1539)">
     <use xlink:href="#ma5806c9e02" x="267.563967" y="82.063057" style="fill: #418887; stroke: #418887"/>
    </g>
   </g>
   <g id="line2d_18">
    <g clip-path="url(#p6931aa1539)">
     <use xlink:href="#ma5806c9e02" x="327.577583" y="77.865313" style="fill: #418887; stroke: #418887"/>
    </g>
   </g>
   <g id="patch_3">
    <path d="M 56.63 381.4 
L 56.63 47.184 
" style="fill: none; stroke: #1f2e3c; stroke-width: 0.8; stroke-linejoin: miter; stroke-linecap: square"/>
   </g>
   <g id="patch_4">
    <path d="M 419.04 381.4 
L 419.04 47.184 
" style="fill: none; stroke: #1f2e3c; stroke-width: 0.8; stroke-linejoin: miter; stroke-linecap: square"/>
   </g>
   <g id="patch_5">
    <path d="M 56.63 381.4 
L 419.04 381.4 
" style="fill: none; stroke: #1f2e3c; stroke-width: 0.8; stroke-linejoin: miter; stroke-linecap: square"/>
   </g>
   <g id="patch_6">
    <path d="M 56.63 47.184 
L 419.04 47.184 
" style="fill: none; stroke: #1f2e3c; stroke-width: 0.8; stroke-linejoin: miter; stroke-linecap: square"/>
   </g>
   <g id="text_15">
    <!-- 0.54 -->
    <g style="fill: #1f2e3c" transform="translate(123.853585 141.780166)scale(0.12 -0.12)">
     <defs>
      <path id="DejaVuSans-35" d="M 691 4666 
L 3169 4666 
L 3169 4134 
L 1269 4134 
L 1269 2991 
Q 1406 3038 1543 3061 
Q 1681 3084 1819 3084 
Q 2600 3084 3056 2656 
Q 3513 2228 3513 1497 
Q 3513 744 3044 326 
Q 2575 -91 1722 -91 
Q 1428 -91 1123 -41 
Q 819 9 494 109 
L 494 744 
Q 775 591 1075 516 
Q 1375 441 1709 441 
Q 2250 441 2565 725 
Q 2881 1009 2881 1497 
Q 2881 1984 2565 2268 
Q 2250 2553 1709 2553 
Q 1456 2553 1204 2497 
Q 953 2441 691 2322 
L 691 4666 
z
" transform="scale(0.015625)"/>
     </defs>
     <use xlink:href="#DejaVuSans-30"/>
     <use xlink:href="#DejaVuSans-2e" x="63.623047"/>
     <use xlink:href="#DejaVuSans-35" x="95.410156"/>
     <use xlink:href="#DejaVuSans-34" x="159.033203"/>
    </g>
   </g>
   <g id="text_16">
    <!-- 0.32 -->
    <g style="fill: #1f2e3c" transform="translate(183.8672 93.925882)scale(0.12 -0.12)">
     <defs>
      <path id="DejaVuSans-33" d="M 2597 2516 
Q 3050 2419 3304 2112 
Q 3559 1806 3559 1356 
Q 3559 666 3084 287 
Q 2609 -91 1734 -91 
Q 1441 -91 1130 -33 
Q 819 25 488 141 
L 488 750 
Q 750 597 1062 519 
Q 1375 441 1716 441 
Q 2309 441 2620 675 
Q 2931 909 2931 1356 
Q 2931 1769 2642 2001 
Q 2353 2234 1838 2234 
L 1294 2234 
L 1294 2753 
L 1863 2753 
Q 2328 2753 2575 2939 
Q 2822 3125 2822 3475 
Q 2822 3834 2567 4026 
Q 2313 4219 1838 4219 
Q 1578 4219 1281 4162 
Q 984 4106 628 3988 
L 628 4550 
Q 988 4650 1302 4700 
Q 1616 4750 1894 4750 
Q 2613 4750 3031 4423 
Q 3450 4097 3450 3541 
Q 3450 3153 3228 2886 
Q 3006 2619 2597 2516 
z
" transform="scale(0.015625)"/>
     </defs>
     <use xlink:href="#DejaVuSans-30"/>
     <use xlink:href="#DejaVuSans-2e" x="63.623047"/>
     <use xlink:href="#DejaVuSans-33" x="95.410156"/>
     <use xlink:href="#DejaVuSans-32" x="159.033203"/>
    </g>
   </g>
   <g id="text_17">
    <!-- 0.17 -->
    <g style="fill: #1f2e3c" transform="translate(243.602975 73.77671)scale(0.12 -0.12)">
     <defs>
      <path id="DejaVuSans-37" d="M 525 4666 
L 3525 4666 
L 3525 4397 
L 1831 0 
L 1172 0 
L 2766 4134 
L 525 4134 
L 525 4666 
z
" transform="scale(0.015625)"/>
     </defs>
     <use xlink:href="#DejaVuSans-30"/>
     <use xlink:href="#DejaVuSans-2e" x="63.623047"/>
     <use xlink:href="#DejaVuSans-31" x="95.410156"/>
     <use xlink:href="#DejaVuSans-37" x="159.033203"/>
    </g>
   </g>
   <g id="text_18">
    <!-- 0.06 -->
    <g style="fill: #1f2e3c" transform="translate(303.616591 69.578965)scale(0.12 -0.12)">
     <use xlink:href="#DejaVuSans-30"/>
     <use xlink:href="#DejaVuSans-2e" x="63.623047"/>
     <use xlink:href="#DejaVuSans-30" x="95.410156"/>
     <use xlink:href="#DejaVuSans-36" x="159.033203"/>
    </g>
   </g>
   <g id="text_19">
    <!-- ROC Curve -->
    <g style="fill: #1f2e3c" transform="translate(194.2475 23.2675)scale(0.16 -0.16)">
     <defs>
      <path id="DejaVuSans-4f" d="M 2522 4238 
Q 1834 4238 1429 3725 
Q 1025 3213 1025 2328 
Q 1025 1447 1429 934 
Q 1834 422 2522 422 
Q 3209 422 3611 934 
Q 4013 1447 4013 2328 
Q 4013 3213 3611 3725 
Q 3209 4238 2522 4238 
z
M 2522 4750 
Q 3503 4750 4090 4092 
Q 4678 3434 4678 2328 
Q 4678 1225 4090 567 
Q 3503 -91 2522 -91 
Q 1538 -91 948 565 
Q 359 1222 359 2328 
Q 359 3434 948 4092 
Q 1538 4750 2522 4750 
z
" transform="scale(0.015625)"/>
      <path id="DejaVuSans-43" d="M 4122 4306 
L 4122 3641 
Q 3803 3938 3442 4084 
Q 3081 4231 2675 4231 
Q 1875 4231 1450 3742 
Q 1025 3253 1025 2328 
Q 1025 1406 1450 917 
Q 1875 428 2675 428 
Q 3081 428 3442 575 
Q 3803 722 4122 1019 
L 4122 359 
Q 3791 134 3420 21 
Q 3050 -91 2638 -91 
Q 1578 -91 968 557 
Q 359 1206 359 2328 
Q 359 3453 968 4101 
Q 1578 4750 2638 4750 
Q 3056 4750 3426 4639 
Q 3797 4528 4122 4306 
z
" transform="scale(0.015625)"/>
     </defs>
     <use xlink:href="#DejaVuSans-52"/>
     <use xlink:href="#DejaVuSans-4f" x="69.482422"/>
     <use xlink:href="#DejaVuSans-43" x="148.193359"/>
     <use xlink:href="#DejaVuSans-20" x="218.017578"/>
     <use xlink:href="#DejaVuSans-43" x="249.804688"/>
     <use xlink:href="#DejaVuSans-75" x="319.628906"/>
     <use xlink:href="#DejaVuSans-72" x="383.007812"/>
     <use xlink:href="#DejaVuSans-76" x="424.121094"/>
     <use xlink:href="#DejaVuSans-65" x="483.300781"/>
    </g>
    <!--  -->
    <g style="fill: #1f2e3c" transform="translate(237.835 41.184)scale(0.16 -0.16)"/>
   </g>
  </g>
 </g>
 <defs>
  <clipPath id="p6931aa1539">
   <rect x="56.63" y="47.184" width="362.41" height="334.216"/>
  </clipPath>
 </defs>
</svg>
